<?xml version="1.0" encoding="UTF-8"?>
<svg id="Layer_1" data-name="Layer 1" xmlns="http://www.w3.org/2000/svg" viewBox="0 0 831.99 839.13">
  <defs>
    <style>
      .cls-1 {
        fill: #91c127;
      }

      .cls-2 {
        fill: #010202;
      }
    </style>
  </defs>
  <path class="cls-2" d="M353.48,284.25c-.03-15.35-13.3-28.68-13.02-44.45.35-19.97,18.62-25.1,30.84-8.86,12.27,16.3,27.25,65.59,47.13,69.87,15.6,3.35,20.22-16.43,21.94-28.17,5.43-37.03,2.88-91.03.11-128.87-2.46-33.57-12.68-77.8.53-109.49,17.73-42.53,73.6-44.58,77.52,8.44,4.69,63.45-37.31,106.54-49.55,165.53-5.67,27.31-8.23,57.64-2,85.02,19.85,87.26,94.44-18.36,112.68-50.34,13.98-24.51,21.56-49.75,33.65-74.35,19.23-39.11,66.57-62.1,108.53-45.18,44.94,18.11,81.36,85.88,50.86,129.58-37.72,54.04-106.18,41.29-161.99,58.01-41.56,12.45-108.6,50.47-77.04,102.57,96.58,122.22,255.01,39.13,292.28,120.71,29.53,71.29-56.2,113.61-111.95,65.96-38.52-32.93-55.04-71.51-106.17-94.83-29.67-13.53-103.71-33.13-108.34,17.37-4.16,45.33,25.72,119.74,60.51,149.46,33.53,28.64,97.03,38.28,85.03,98.08-13.73,68.47-105.62,67.48-126.06-3.06-12.57-43.4-9.75-82.04-29.64-126.36-55.05-116.5-115.66-82.39-139.54,26.18-7,41.15,6.09,99.52-10.83,134.17-31.94,65.42-164.26,43.33-146.82-44.82,12.11-61.23,75.42-87.7,113.85-130.15,23.54-26.01,55.01-74.29,53.48-110.49-1.78-42.18-56.04-34.72-83.51-24.54-50.66,18.76-80.01,59.74-121.57,89.43-93.63,63.58-119.86-32.28-16.9-64.89,65.1-21.66,293.15-94.81,110.19-138.23-66.85-11.86-140.47,18.99-201.56-8.43-79.79-35.81-49.11-122.17,38.84-115.84,67.02,4.82,91.74,51.13,145.15,76.85,22.9,11.03,76.48,27.18,100.58,19.86,31.23-9.49,4.33-41.63,9.89-60.12,1.92-6.38,6.93-8.21,12.88-5.6Z"/>
  <path class="cls-1" d="M323.18,241.93c-13.07,8.61-21.8-13.96-28.28-22.59-7.94-10.58-16.74-21.56-25.9-31.1-28.12-29.26-66.01-47.97-72.39-92.61C189.42,45.37,218.91-3.67,274.03.22c82.95,5.85,62.53,119.82,75.51,175.59-2.67,10.44-9.56-.19-15.56-.6-23.21,1.86,16.7,52.67-10.8,66.73Z"/>
</svg>